<svg id="visual" viewBox="0 0 960 540" width="960" height="540" xmlns="http://www.w3.org/2000/svg" xmlns:xlink="http://www.w3.org/1999/xlink" version="1.1"><rect x="0" y="0" width="960" height="540" fill="#dfdff2"></rect><path d="M0 272L32 263.8C64 255.7 128 239.3 192 244C256 248.7 320 274.3 384 274.7C448 275 512 250 576 243C640 236 704 247 768 266C832 285 896 312 928 325.5L960 339L960 541L928 541C896 541 832 541 768 541C704 541 640 541 576 541C512 541 448 541 384 541C320 541 256 541 192 541C128 541 64 541 32 541L0 541Z" fill="#58556b"></path><path d="M0 305L32 306C64 307 128 309 192 309.3C256 309.7 320 308.3 384 309.3C448 310.3 512 313.7 576 323.3C640 333 704 349 768 343.8C832 338.7 896 312.3 928 299.2L960 286L960 541L928 541C896 541 832 541 768 541C704 541 640 541 576 541C512 541 448 541 384 541C320 541 256 541 192 541C128 541 64 541 32 541L0 541Z" fill="#464459"></path><path d="M0 390L32 378.2C64 366.3 128 342.7 192 330.5C256 318.3 320 317.7 384 323.2C448 328.7 512 340.3 576 344.2C640 348 704 344 768 350.5C832 357 896 374 928 382.5L960 391L960 541L928 541C896 541 832 541 768 541C704 541 640 541 576 541C512 541 448 541 384 541C320 541 256 541 192 541C128 541 64 541 32 541L0 541Z" fill="#353347"></path><path d="M0 407L32 410C64 413 128 419 192 414C256 409 320 393 384 386.2C448 379.3 512 381.7 576 383.7C640 385.7 704 387.3 768 387.2C832 387 896 385 928 384L960 383L960 541L928 541C896 541 832 541 768 541C704 541 640 541 576 541C512 541 448 541 384 541C320 541 256 541 192 541C128 541 64 541 32 541L0 541Z" fill="#252337"></path><path d="M0 451L32 451.2C64 451.3 128 451.7 192 454.3C256 457 320 462 384 455.7C448 449.3 512 431.7 576 429.8C640 428 704 442 768 445.5C832 449 896 442 928 438.5L960 435L960 541L928 541C896 541 832 541 768 541C704 541 640 541 576 541C512 541 448 541 384 541C320 541 256 541 192 541C128 541 64 541 32 541L0 541Z" fill="#161427"></path><path d="M0 497L32 497.5C64 498 128 499 192 492.5C256 486 320 472 384 473.8C448 475.7 512 493.3 576 496.8C640 500.3 704 489.7 768 485.5C832 481.3 896 483.7 928 484.8L960 486L960 541L928 541C896 541 832 541 768 541C704 541 640 541 576 541C512 541 448 541 384 541C320 541 256 541 192 541C128 541 64 541 32 541L0 541Z" fill="#000000"></path></svg>