<svg id="visual" viewBox="0 0 960 540" width="960" height="540" xmlns="http://www.w3.org/2000/svg" xmlns:xlink="http://www.w3.org/1999/xlink" version="1.1"><g stroke-width="1" stroke-linejoin="bevel"><path d="M448 290L467 232L389 201Z" fill="#3d3d3d" stroke="#3d3d3d"></path><path d="M389 201L392 352L448 290Z" fill="#212121" stroke="#212121"></path><path d="M467 232L452 128L389 201Z" fill="#1b1b1b" stroke="#1b1b1b"></path><path d="M229 200L266 307L389 201Z" fill="#3d3d3d" stroke="#3d3d3d"></path><path d="M389 201L266 307L392 352Z" fill="#2f2f2f" stroke="#2f2f2f"></path><path d="M452 128L338 100L389 201Z" fill="#363636" stroke="#363636"></path><path d="M511 426L573 345L448 290Z" fill="#141414" stroke="#141414"></path><path d="M448 290L573 345L467 232Z" fill="#3d3d3d" stroke="#3d3d3d"></path><path d="M467 232L602 209L452 128Z" fill="#3d3d3d" stroke="#3d3d3d"></path><path d="M573 345L602 209L467 232Z" fill="#454545" stroke="#454545"></path><path d="M338 100L229 200L389 201Z" fill="#4c4c4c" stroke="#4c4c4c"></path><path d="M266 307L355 434L392 352Z" fill="#545454" stroke="#545454"></path><path d="M392 352L511 426L448 290Z" fill="#1b1b1b" stroke="#1b1b1b"></path><path d="M355 434L511 426L392 352Z" fill="#141414" stroke="#141414"></path><path d="M602 209L573 96L452 128Z" fill="#212121" stroke="#212121"></path><path d="M452 128L326 0L338 100Z" fill="#545454" stroke="#545454"></path><path d="M338 100L221 130L229 200Z" fill="#212121" stroke="#212121"></path><path d="M509 0L326 0L452 128Z" fill="#3d3d3d" stroke="#3d3d3d"></path><path d="M338 100L229 0L221 130Z" fill="#282828" stroke="#282828"></path><path d="M573 96L509 0L452 128Z" fill="#2f2f2f" stroke="#2f2f2f"></path><path d="M457 540L589 454L511 426Z" fill="#363636" stroke="#363636"></path><path d="M511 426L589 454L573 345Z" fill="#1b1b1b" stroke="#1b1b1b"></path><path d="M712 309L698 186L602 209Z" fill="#1b1b1b" stroke="#1b1b1b"></path><path d="M266 307L220 450L355 434Z" fill="#1b1b1b" stroke="#1b1b1b"></path><path d="M355 434L457 540L511 426Z" fill="#545454" stroke="#545454"></path><path d="M140 327L220 450L266 307Z" fill="#545454" stroke="#545454"></path><path d="M140 327L266 307L229 200Z" fill="#363636" stroke="#363636"></path><path d="M90 192L140 327L229 200Z" fill="#545454" stroke="#545454"></path><path d="M602 209L698 186L573 96Z" fill="#282828" stroke="#282828"></path><path d="M573 96L617 0L509 0Z" fill="#1b1b1b" stroke="#1b1b1b"></path><path d="M712 309L602 209L573 345Z" fill="#212121" stroke="#212121"></path><path d="M346 540L457 540L355 434Z" fill="#282828" stroke="#282828"></path><path d="M260 540L346 540L355 434Z" fill="#3d3d3d" stroke="#3d3d3d"></path><path d="M750 402L712 309L573 345Z" fill="#0b0b0b" stroke="#0b0b0b"></path><path d="M326 0L229 0L338 100Z" fill="#1b1b1b" stroke="#1b1b1b"></path><path d="M99 135L90 192L229 200Z" fill="#282828" stroke="#282828"></path><path d="M710 110L617 0L573 96Z" fill="#1b1b1b" stroke="#1b1b1b"></path><path d="M140 327L152 430L220 450Z" fill="#1b1b1b" stroke="#1b1b1b"></path><path d="M220 450L260 540L355 434Z" fill="#212121" stroke="#212121"></path><path d="M813 248L710 110L698 186Z" fill="#2f2f2f" stroke="#2f2f2f"></path><path d="M698 186L710 110L573 96Z" fill="#1b1b1b" stroke="#1b1b1b"></path><path d="M99 135L229 200L221 130Z" fill="#545454" stroke="#545454"></path><path d="M140 327L0 328L152 430Z" fill="#4c4c4c" stroke="#4c4c4c"></path><path d="M111 540L260 540L220 450Z" fill="#454545" stroke="#454545"></path><path d="M137 0L99 135L221 130Z" fill="#0b0b0b" stroke="#0b0b0b"></path><path d="M457 540L623 540L589 454Z" fill="#454545" stroke="#454545"></path><path d="M589 454L750 402L573 345Z" fill="#3d3d3d" stroke="#3d3d3d"></path><path d="M701 540L750 402L589 454Z" fill="#4c4c4c" stroke="#4c4c4c"></path><path d="M712 309L813 248L698 186Z" fill="#545454" stroke="#545454"></path><path d="M229 0L137 0L221 130Z" fill="#363636" stroke="#363636"></path><path d="M870 0L706 0L710 110Z" fill="#2f2f2f" stroke="#2f2f2f"></path><path d="M710 110L706 0L617 0Z" fill="#282828" stroke="#282828"></path><path d="M848 334L813 248L712 309Z" fill="#545454" stroke="#545454"></path><path d="M623 540L701 540L589 454Z" fill="#3d3d3d" stroke="#3d3d3d"></path><path d="M750 402L848 334L712 309Z" fill="#454545" stroke="#454545"></path><path d="M0 124L90 192L99 135Z" fill="#545454" stroke="#545454"></path><path d="M0 124L0 211L90 192Z" fill="#454545" stroke="#454545"></path><path d="M90 192L0 328L140 327Z" fill="#545454" stroke="#545454"></path><path d="M0 452L111 540L152 430Z" fill="#212121" stroke="#212121"></path><path d="M152 430L111 540L220 450Z" fill="#545454" stroke="#545454"></path><path d="M0 211L0 328L90 192Z" fill="#0b0b0b" stroke="#0b0b0b"></path><path d="M0 0L0 124L99 135Z" fill="#3d3d3d" stroke="#3d3d3d"></path><path d="M865 454L848 334L750 402Z" fill="#363636" stroke="#363636"></path><path d="M0 328L0 452L152 430Z" fill="#3d3d3d" stroke="#3d3d3d"></path><path d="M813 248L870 122L710 110Z" fill="#2f2f2f" stroke="#2f2f2f"></path><path d="M960 232L870 122L813 248Z" fill="#4c4c4c" stroke="#4c4c4c"></path><path d="M137 0L0 0L99 135Z" fill="#2f2f2f" stroke="#2f2f2f"></path><path d="M851 540L865 454L750 402Z" fill="#0b0b0b" stroke="#0b0b0b"></path><path d="M848 334L960 232L813 248Z" fill="#454545" stroke="#454545"></path><path d="M0 452L0 540L111 540Z" fill="#212121" stroke="#212121"></path><path d="M870 122L870 0L710 110Z" fill="#545454" stroke="#545454"></path><path d="M701 540L851 540L750 402Z" fill="#141414" stroke="#141414"></path><path d="M960 342L960 232L848 334Z" fill="#282828" stroke="#282828"></path><path d="M870 122L960 95L870 0Z" fill="#2f2f2f" stroke="#2f2f2f"></path><path d="M960 342L848 334L865 454Z" fill="#1b1b1b" stroke="#1b1b1b"></path><path d="M960 436L960 342L865 454Z" fill="#212121" stroke="#212121"></path><path d="M960 232L960 95L870 122Z" fill="#0b0b0b" stroke="#0b0b0b"></path><path d="M960 540L960 436L865 454Z" fill="#141414" stroke="#141414"></path><path d="M960 95L960 0L870 0Z" fill="#1b1b1b" stroke="#1b1b1b"></path><path d="M851 540L960 540L865 454Z" fill="#282828" stroke="#282828"></path></g></svg>